<?xml version="1.0" standalone="no"?>
<!DOCTYPE svg PUBLIC "-//W3C//DTD SVG 20010904//EN"
 "http://www.w3.org/TR/2001/REC-SVG-20010904/DTD/svg10.dtd">
<svg version="1.0" xmlns="http://www.w3.org/2000/svg"
 width="900.000000pt" height="900.000000pt" viewBox="0 0 900.000000 900.000000"
 preserveAspectRatio="xMidYMid meet">

<g transform="translate(0.000000,900.000000) scale(0.100000,-0.100000)"
fill="#1252a1" stroke="none">
<path d="M4169 8995 c-3 -2 -75 -12 -160 -20 -160 -17 -241 -30 -444 -71 -266
-54 -607 -159 -792 -244 -24 -11 -45 -20 -48 -20 -13 0 -282 -129 -370 -178
-591 -325 -1089 -757 -1477 -1282 -187 -253 -280 -406 -427 -705 -182 -369
-312 -757 -380 -1135 -7 -36 -16 -87 -21 -115 -11 -62 -26 -190 -41 -360 -13
-147 -7 -713 10 -860 9 -81 15 -123 40 -290 11 -70 49 -246 67 -314 9 -31 20
-72 24 -91 34 -142 136 -435 206 -593 267 -604 627 -1111 1094 -1543 192 -178
542 -438 741 -552 19 -11 63 -36 99 -57 100 -57 393 -198 510 -245 58 -23 114
-46 125 -50 68 -29 316 -105 495 -151 100 -26 398 -81 490 -90 58 -5 118 -14
134 -19 38 -13 870 -13 916 0 19 5 80 14 135 19 106 11 397 66 530 101 318 83
615 194 890 333 33 16 78 39 100 50 21 11 100 56 175 100 751 446 1334 1066
1730 1842 102 200 171 361 226 525 8 25 19 54 24 65 4 11 11 29 13 40 3 11 17
58 32 105 15 47 31 101 35 120 4 19 15 60 23 90 20 72 58 252 67 315 4 28 14
100 23 160 9 61 21 166 26 235 14 157 14 619 1 765 -16 171 -30 295 -41 355
-26 139 -32 172 -55 275 -23 103 -36 156 -54 215 -4 14 -14 50 -23 80 -141
474 -395 982 -686 1369 -31 40 -65 85 -76 100 -219 292 -637 691 -945 904
-265 182 -527 332 -760 435 -125 55 -151 66 -220 92 -362 138 -738 231 -1065
266 -77 8 -168 19 -201 24 -61 10 -686 14 -695 5z m321 -2149 c548 -81 950
-303 1261 -696 138 -174 277 -476 317 -690 6 -30 15 -79 21 -108 13 -66 14
-433 2 -499 -5 -26 -15 -77 -22 -113 -15 -84 -42 -170 -91 -295 -169 -428
-531 -753 -975 -875 -237 -65 -537 -66 -753 -4 -30 9 -67 18 -83 21 -15 3 -30
9 -33 14 -3 5 -12 9 -20 9 -7 0 -48 16 -90 35 -174 81 -278 247 -260 417 13
126 86 244 189 306 123 74 237 79 397 16 134 -52 243 -67 357 -49 106 17 136
25 203 59 176 88 288 228 354 441 66 213 55 407 -37 632 -173 426 -721 671
-1253 559 -112 -24 -161 -41 -289 -101 -340 -161 -584 -472 -688 -876 -44
-172 -51 -228 -51 -419 0 -179 7 -244 41 -390 144 -621 643 -1111 1258 -1236
110 -23 420 -26 530 -6 113 21 168 33 195 42 14 4 66 21 115 36 100 31 292
125 402 197 345 225 557 531 658 947 49 199 55 217 97 275 105 147 300 196
463 116 94 -46 146 -122 174 -249 22 -105 10 -379 -24 -522 -23 -96 -30 -121
-47 -173 -83 -255 -206 -470 -401 -701 -198 -234 -486 -460 -750 -588 -139
-68 -466 -163 -677 -197 -163 -27 -210 -32 -356 -41 -273 -17 -533 15 -801 96
-229 69 -443 170 -631 296 -285 191 -508 418 -698 713 -338 522 -454 1107
-345 1739 23 129 100 396 146 501 7 17 21 50 32 75 108 264 247 474 452 683
190 194 430 361 626 439 28 11 64 26 80 33 126 56 310 103 510 129 93 12 416
14 495 2z"/>
</g>
</svg>
